# xmcd
#
# Track frame offsets:
#	150
#	33397
#	55489
#	88322
#	114962
#	145454
#	166130
#	192578
#	227894
#
# Disc length: 3323 seconds
#
# Revision: 700893792
# Processed by: cddbd v1.5.2PL0 Copyright (c) Steve Scherf et al.
# Submitted via: EZCDAudioConverter 8.0.2.1
#
DISCID=7f0cf909
DTITLE=Quốc Hưng - Hà Nội Ơi Thầm Hát
DYEAR=2009
DGENRE=Blues
TTITLE0=Hà Nội ngày trở về
TTITLE1=Mối tình đầu
TTITLE2=Chiều mưa Hà Nội
TTITLE3=Hà Nội ơi thầm hát trong tôi
TTITLE4=Dương cầm thu không em
TTITLE5=Mơ về nơi xa lắm
TTITLE6=Tình yêu Hà Nội
TTITLE7=Hướng về Hà Nội
TTITLE8=Truyền thuyết hồ Gươm
EXTD=
EXTT0=
EXTT1=
EXTT2=
EXTT3=
EXTT4=
EXTT5=
EXTT6=
EXTT7=
EXTT8=
PLAYORDER=
